:SAMPLES-PER-SECOND 30
:FULLY-SPECIFIED
:DEGREES
1
root  12.3213 40.8905 -0.757666 -170.26 -86.0665 170.305
RightUpLeg  -1.64217 -7.98804 -4.99313
RightLeg  5.25921 -5.19848 3.30498
RightFoot  -2.64925 0.0239202 -0.685979
RightToes  0.000482159 0.542163 -0.142577
Spine  7.2619 -0.0470102 -4.69423
Spine1  -0.156802 -0.89322 3.7383
HEad  -2.50832 -6.51743 2.01276
LeftShoulder1  1.2192 -2.70227 -12.5034
LeftArm  -21.3503 17.6428 -9.2967
LeftForeArm  15.9638 -3.88893 0.616804
LeftHand  -0.25398 0.0180481 5.50724
RightShoulder  0.830842 0.786194 12.2728
RightArm  -23.0257 -11.0168 5.68014
RightForeArm  -2.35754 8.82089 2.77978
RightHand  -2.18485 6.06552 -22.264
LeftUpLeg  -0.925716 4.41144 1.27986
LeftLeg  2.50161 13.6737 -4.00914
LeftFoot  -2.29002 -0.0949336 1.37921
LeftToes  1.06246e-005 4.65854e-005 -8.18503e-006
2
root  12.3104 40.8905 -0.759836 -169.994 -85.9566 170.087
RightUpLeg  -1.72259 -7.98717 -5.00741
RightLeg  5.32056 -5.10249 3.29281
RightFoot  -2.68427 0.0286101 -0.758839
RightToes  0.000482159 0.542163 -0.142577
Spine  7.22549 -0.00229677 -4.74483
Spine1  -0.161698 -0.841915 3.7099
HEad  -2.53618 -6.44093 2.02226
LeftShoulder1  1.20766 -2.66875 -12.4145
LeftArm  -21.3835 17.6435 -9.37746
LeftForeArm  15.9963 -3.91488 0.619157
LeftHand  -0.25398 0.0180481 5.50724
RightShoulder  0.829448 0.789775 12.2718
RightArm  -23.0796 -11.0153 5.69829
RightForeArm  -2.15712 8.82881 2.75519
RightHand  -2.12981 5.89599 -22.0347
LeftUpLeg  -0.964968 4.41325 1.2501
LeftLeg  2.52235 13.7836 -4.01919
LeftFoot  -2.2913 -0.100117 1.45979
LeftToes  1.06246e-005 4.65854e-005 -8.18503e-006
3
root  12.2906 40.8905 -0.763429 -169.763 -85.8161 169.925
RightUpLeg  -1.83644 -7.98534 -5.01732
RightLeg  5.414 -4.9769 3.27689
RightFoot  -2.75103 0.0312548 -0.799928
RightToes  0.000482159 0.542163 -0.142577
Spine  7.23989 0.0565386 -4.7528
Spine1  -0.270471 -0.760962 3.61798
HEad  -2.49232 -6.35829 1.99365
LeftShoulder1  1.20203 -2.66813 -12.3166
LeftArm  -21.4064 17.6549 -9.43432
LeftForeArm  16.0348 -3.97817 0.613488
LeftHand  -0.25398 0.0180481 5.50724
RightShoulder  0.821955 0.764534 12.1887
RightArm  -23.1318 -11.0269 5.78941
RightForeArm  -1.77618 8.80256 2.71429
RightHand  -2.06705 5.73405 -21.7081
LeftUpLeg  -1.0341 4.41522 1.21783
LeftLeg  2.58901 13.919 -4.01831
LeftFoot  -2.31956 -0.106104 1.55287
LeftToes  1.06246e-005 4.65854e-005 -8.18503e-006
4
root  12.2665 40.8903 -0.76692 -169.738 -85.7717 169.906
RightUpLeg  -1.83815 -7.9861 -5.02677
RightLeg  5.46599 -4.92028 3.27009
RightFoot  -2.79806 0.0254517 -0.709772
RightToes  0.000482159 0.542163 -0.142577
Spine  7.36175 0.0600148 -4.6974
Spine1  -0.432904 -0.735585 3.51598
HEad  -2.40896 -6.30792 1.90339
LeftShoulder1  1.20819 -2.70236 -12.3083
LeftArm  -21.419 17.7021 -9.3892
LeftForeArm  16.0595 -4.06912 0.612523
LeftHand  -0.25398 0.0180481 5.50724
RightShoulder  0.810804 0.733665 12.0511
RightArm  -23.142 -10.9847 5.8949
RightForeArm  -1.4613 8.69296 2.67659
RightHand  -2.06327 5.78742 -21.5716
LeftUpLeg  -1.04803 4.4148 1.20756
LeftLeg  2.69108 13.954 -3.98982
LeftFoot  -2.38396 -0.109954 1.61273
LeftToes  1.06246e-005 4.65854e-005 -8.18503e-006
5
root  12.24 40.8898 -0.769458 -169.657 -85.787 169.762
RightUpLeg  -1.73053 -8.00768 -5.05415
RightLeg  5.48873 -4.91682 3.2712
RightFoot  -2.83646 0.0231332 -0.673753
RightToes  0.000482159 0.542163 -0.142577
Spine  7.49187 0.0244832 -4.62797
Spine1  -0.480852 -0.752714 3.40811
HEad  -2.43841 -6.27311 1.88677
LeftShoulder1  1.22228 -2.76201 -12.3534
LeftArm  -21.4251 17.772 -9.29628
LeftForeArm  16.1013 -4.12145 0.623941
LeftHand  -0.25398 0.0180481 5.50724
RightShoulder  0.806537 0.716716 12.0475
RightArm  -23.1883 -10.8373 5.84154
RightForeArm  -1.18043 8.56316 2.62916
RightHand  -2.07795 5.89525 -21.5219
LeftUpLeg  -0.961349 4.40862 1.19787
LeftLeg  2.74187 13.933 -3.96372
LeftFoot  -2.45262 -0.111832 1.64192
LeftToes  1.06246e-005 4.65854e-005 -8.18503e-006
6
root  12.214 40.8884 -0.768792 -169.395 -85.7587 169.471
RightUpLeg  -1.67402 -8.03888 -5.09473
RightLeg  5.52938 -4.87572 3.27337
RightFoot  -2.91019 0.0291062 -0.766546
RightToes  0.000482159 0.542163 -0.142577
Spine  7.523 0.010017 -4.54482
Spine1  -0.41501 -0.735584 3.23841
HEad  -2.53574 -6.22859 2.05191
LeftShoulder1  1.24084 -2.8608 -12.3437
LeftArm  -21.3994 17.8498 -9.25756
LeftForeArm  16.1498 -4.08339 0.634519
LeftHand  -0.25398 0.0180481 5.50724
RightShoulder  0.803721 0.698694 12.2015
RightArm  -23.2722 -10.6812 5.65666
RightForeArm  -1.08736 8.53931 2.60056
RightHand  -2.07002 5.87799 -21.4743
LeftUpLeg  -0.860147 4.39236 1.16771
LeftLeg  2.69452 13.9748 -3.97034
LeftFoot  -2.51212 -0.110057 1.62362
LeftToes  1.06246e-005 4.65854e-005 -8.18503e-006
7
root  12.1913 40.8842 -0.760513 -169.159 -85.6953 169.312
RightUpLeg  -1.76201 -8.08763 -5.14819
RightLeg  5.59977 -4.75563 3.30141
RightFoot  -2.99546 0.0265459 -0.726771
RightToes  0.000482159 0.542163 -0.142577
Spine  7.51717 0.0132844 -4.39959
Spine1  -0.442445 -0.681514 3.0018
HEad  -2.46987 -6.15596 2.23937
LeftShoulder1  1.25778 -2.97084 -12.2695
LeftArm  -21.3272 17.9362 -9.28799
LeftForeArm  16.1092 -4.01395 0.624004
LeftHand  -0.25398 0.0180481 5.50724
RightShoulder  0.801876 0.683162 12.2559
RightArm  -23.2695 -10.691 5.61311
RightForeArm  -1.43858 8.65818 2.64622
RightHand  -2.06807 5.82716 -21.547
LeftUpLeg  -0.890009 4.35765 1.1182
LeftLeg  2.69152 14.0914 -3.96375
LeftFoot  -2.65089 -0.102037 1.55373
LeftToes  1.06246e-005 4.65854e-005 -8.18503e-006
8
root  12.1705 40.8731 -0.74034 -169.106 -85.6819 169.383
RightUpLeg  -1.9132 -8.2013 -5.23771
RightLeg  5.70995 -4.6048 3.39834
RightFoot  -3.05609 0.0103942 -0.475872
RightToes  0.000482159 0.542163 -0.142577
Spine  7.59152 -0.0093292 -4.17886
Spine1  -0.621256 -0.651292 2.77108
HEad  -2.21553 -6.06901 2.19595
LeftShoulder1  1.26602 -3.01333 -12.2703
LeftArm  -21.2544 17.9603 -9.30631
LeftForeArm  15.984 -3.99583 0.596366
LeftHand  -0.25398 0.0180481 5.50724
RightShoulder  0.801887 0.692098 12.0984
RightArm  -23.2513 -10.8653 5.79066
RightForeArm  -1.72756 8.82908 2.69945
RightHand  -2.07406 5.82537 -21.61
LeftUpLeg  -1.09153 4.28052 1.04813
LeftLeg  2.95532 14.2096 -3.84793
LeftFoot  -3.0245 -0.0852173 1.42306
LeftToes  1.06246e-005 4.65854e-005 -8.18503e-006
9
root  12.1462 40.8558 -0.706583 -169.414 -85.6962 169.766
RightUpLeg  -2.01194 -8.38122 -5.35456
RightLeg  5.87257 -4.44815 3.54584
RightFoot  -3.15063 0.000820495 -0.327179
RightToes  0.000482159 0.542163 -0.142577
Spine  7.69888 -0.0356932 -3.92343
Spine1  -0.696573 -0.640961 2.62497
HEad  -2.02541 -5.97913 1.93512
LeftShoulder1  1.26845 -2.96475 -12.4712
LeftArm  -21.3328 17.8415 -9.30384
LeftForeArm  16.0243 -4.05114 0.609356
LeftHand  -0.25398 0.0180481 5.50724
RightShoulder  0.804758 0.705402 12.035
RightArm  -23.5792 -10.9786 5.92754
RightForeArm  -1.31593 9.00668 2.6177
RightHand  -2.05109 5.77694 -21.4698
LeftUpLeg  -1.3677 4.17635 0.958938
LeftLeg  3.5369 14.3163 -3.57983
LeftFoot  -3.70485 -0.0548928 1.1553
LeftToes  1.06246e-005 4.65854e-005 -8.18503e-006
10
root  12.1113 40.8353 -0.659669 -170.554 -85.6231 170.895
RightUpLeg  -2.0007 -8.5393 -5.44204
RightLeg  6.01916 -4.2221 3.67176
RightFoot  -3.32293 -0.00159064 -0.299772
RightToes  0.000482159 0.542163 -0.142577
Spine  7.71729 -0.000291496 -3.67662
Spine1  -0.46589 -0.591231 2.6061
HEad  -1.97769 -5.80632 1.66501
LeftShoulder1  1.28511 -2.93938 -12.8386
LeftArm  -21.8237 17.7856 -9.45813
LeftForeArm  16.4543 -4.36649 0.750824
LeftHand  -0.25398 0.0180481 5.50724
RightShoulder  0.81867 0.707107 12.3936
RightArm  -24.3569 -10.9706 5.92251
RightForeArm  -1.43393 9.45697 2.51127
RightHand  -2.08329 5.81389 -21.7248
LeftUpLeg  -1.60036 4.18552 0.878379
LeftLeg  4.31378 14.4181 -3.18621
LeftFoot  -4.61016 -0.0147337 0.722451
LeftToes  1.06246e-005 4.65854e-005 -8.18503e-006
11
root  12.058 40.8145 -0.600324 -172.609 -85.4386 172.838
RightUpLeg  -1.81103 -8.62427 -5.49665
RightLeg  6.04017 -3.88227 3.75441
RightFoot  -3.48171 -0.0263759 0.0377484
RightToes  0.000482159 0.542163 -0.142577
Spine  7.6918 0.0951178 -3.46735
Spine1  -0.0841103 -0.50335 2.70398
HEad  -1.76582 -5.39137 1.41891
LeftShoulder1  1.34376 -3.09972 -13.2844
LeftArm  -22.9695 18.315 -10.0005
LeftForeArm  17.1052 -5.53336 1.03158
LeftHand  -0.25398 0.0180481 5.50724
RightShoulder  0.867547 0.805391 13.1541
RightArm  -25.027 -11.2751 6.09378
RightForeArm  -4.43225 10.7964 2.80794
RightHand  -2.34734 6.37142 -23.2356
LeftUpLeg  -1.70345 4.3831 0.82513
LeftLeg  5.15231 14.5352 -2.72538
LeftFoot  -5.604 0.018693 0.293822
LeftToes  1.06246e-005 4.65854e-005 -8.18503e-006
12
root  11.9778 40.7937 -0.527744 -174.819 -85.2341 174.808
RightUpLeg  -1.39288 -8.70906 -5.60302
RightLeg  5.97761 -3.48168 3.8417
RightFoot  -3.60245 -0.0708722 0.6869
RightToes  0.000482159 0.542163 -0.142577
Spine  7.75865 0.188542 -3.31775
Spine1  0.200745 -0.431606 2.85
HEad  -1.09512 -4.6538 1.0393
LeftShoulder1  1.45564 -3.46769 -13.8723
LeftArm  -24.8203 19.7675 -11.0089
LeftForeArm  17.6782 -8.22555 1.29383
LeftHand  -0.25398 0.0180481 5.50724
RightShoulder  0.98554 1.16448 14.2276
RightArm  -24.8123 -12.4295 6.68151
RightForeArm  -9.89986 13.5402 3.71068
RightHand  -2.81808 7.47591 -25.4397
LeftUpLeg  -1.61067 4.68629 0.768184
LeftLeg  5.96719 14.6596 -2.26013
LeftFoot  -6.6291 0.0366682 0.041071
LeftToes  1.06246e-005 4.65854e-005 -8.18503e-006
13
root  11.8669 40.7708 -0.43832 -176.488 -85.0573 176.137
RightUpLeg  -0.847363 -8.85543 -5.81469
RightLeg  6.03145 -3.06611 3.94083
RightFoot  -3.88306 -0.100961 1.14105
RightToes  0.000482159 0.542163 -0.142577
Spine  7.8884 0.257556 -3.24499
Spine1  0.412445 -0.391409 2.99493
HEad  -0.0308992 -3.66852 0.503589
LeftShoulder1  1.59918 -3.85841 -14.8004
LeftArm  -27.909 21.9192 -12.369
LeftForeArm  19.1862 -12.524 1.02976
LeftHand  -0.25398 0.0180481 5.50724
RightShoulder  1.18659 1.77902 15.7071
RightArm  -23.4133 -14.3559 7.57046
RightForeArm  -13.7984 17.4234 4.72703
RightHand  -3.08623 8.11465 -26.5054
LeftUpLeg  -1.32538 4.98356 0.668262
LeftLeg  6.70547 14.7379 -1.84267
LeftFoot  -7.69785 0.0469982 -0.121722
LeftToes  1.06246e-005 4.65854e-005 -8.18503e-006
